<?xml version="1.0" encoding="UTF-8" standalone="no"?>
<!-- Created with Inkscape (http://www.inkscape.org/) -->

<svg
   xmlns:dc="http://purl.org/dc/elements/1.1/"
   xmlns:cc="http://creativecommons.org/ns#"
   xmlns:rdf="http://www.w3.org/1999/02/22-rdf-syntax-ns#"
   xmlns:svg="http://www.w3.org/2000/svg"
   xmlns="http://www.w3.org/2000/svg"
   xmlns:sodipodi="http://sodipodi.sourceforge.net/DTD/sodipodi-0.dtd"
   xmlns:inkscape="http://www.inkscape.org/namespaces/inkscape"
   width="606mm"
   height="606mm"
   viewBox="0 0 606 606"
   version="1.1"
   id="svg8"
   inkscape:version="0.92.4 (5da689c313, 2019-01-14)"
   sodipodi:docname="88.svg">
  <defs
     id="defs2" />
  <sodipodi:namedview
     id="base"
     pagecolor="#ffffff"
     bordercolor="#666666"
     borderopacity="1.0"
     inkscape:pageopacity="0.0"
     inkscape:pageshadow="2"
     inkscape:zoom="0.24748737"
     inkscape:cx="2080.8757"
     inkscape:cy="1658.7562"
     inkscape:document-units="mm"
     inkscape:current-layer="layer1"
     showgrid="false"
     inkscape:snap-global="false"
     inkscape:window-width="1920"
     inkscape:window-height="1057"
     inkscape:window-x="-8"
     inkscape:window-y="-8"
     inkscape:window-maximized="1" />
  <metadata
     id="metadata5">
    <rdf:RDF>
      <cc:Work
         rdf:about="">
        <dc:format>image/svg+xml</dc:format>
        <dc:type
           rdf:resource="http://purl.org/dc/dcmitype/StillImage" />
        <dc:title></dc:title>
      </cc:Work>
    </rdf:RDF>
  </metadata>
  <g
     inkscape:label="Layer 1"
     inkscape:groupmode="layer"
     id="layer1"
     transform="translate(0,309)">
    <rect
       style="opacity:1;fill:#000000;fill-opacity:1;fill-rule:nonzero;stroke:none;stroke-width:4.45124197;stroke-linecap:square;stroke-linejoin:round;stroke-miterlimit:4;stroke-dasharray:none;stroke-dashoffset:0;stroke-opacity:1"
       id="rect10"
       width="604"
       height="604"
       x="1"
       y="-308"
       rx="62"
       ry="62" />
    <rect
       y="-306"
       x="3"
       height="600"
       width="600"
       id="rect12"
       style="opacity:1;fill:#ffffff;fill-opacity:1;fill-rule:nonzero;stroke:none;stroke-width:4.42176342;stroke-linecap:square;stroke-linejoin:round;stroke-miterlimit:4;stroke-dasharray:none;stroke-dashoffset:0;stroke-opacity:1"
       rx="60"
       ry="60" />
    <rect
       style="opacity:1;fill:#c0121e;fill-opacity:1;fill-rule:nonzero;stroke:none;stroke-width:4.27437115;stroke-linecap:square;stroke-linejoin:round;stroke-miterlimit:4;stroke-dasharray:none;stroke-dashoffset:0;stroke-opacity:1"
       id="rect14"
       width="580"
       height="580"
       x="13"
       y="-296"
       rx="50"
       ry="50" />
    <rect
       style="opacity:1;fill:#ffffff;fill-opacity:1;fill-rule:nonzero;stroke:none;stroke-width:4.05328321;stroke-linecap:square;stroke-linejoin:round;stroke-miterlimit:4;stroke-dasharray:none;stroke-dashoffset:0;stroke-opacity:1"
       id="rect821"
       width="550"
       height="550"
       x="28"
       y="-281"
       rx="35"
       ry="35" />
    <path
       style="fill:#000000;fill-opacity:1;fill-rule:nonzero;stroke:none;stroke-width:0.17638847"
       d="m 504.91485,-201 c 11.0454,0 17.9101,2.51595 19.9932,15.00019 l 10.592,54.99969 v 72.499919 H 136.79984 L 70.5,-71.800151 V -191.00011 c 0,-5.54001 4.45992,-9.99987 9.99992,-9.99988 z"
       id="path39"
       inkscape:connector-curvature="0"
       sodipodi:nodetypes="scccccsss" />
    <path
       d="m 509.63305,-186.0001 -31.3331,-1e-5 v 112.499919 l 42.2001,-1e-5 v -56.068139"
       style="fill:#ffffff;fill-opacity:1;fill-rule:nonzero;stroke:none;stroke-width:0.17638829"
       id="path58"
       inkscape:connector-curvature="0"
       sodipodi:nodetypes="ccccc" />
    <rect
       style="opacity:1;fill:#ffffff;fill-opacity:1;fill-rule:nonzero;stroke:none;stroke-width:2.02449703;stroke-linecap:square;stroke-linejoin:round;stroke-miterlimit:4;stroke-dasharray:none;stroke-dashoffset:0;stroke-opacity:1"
       id="rect127"
       width="83.199997"
       height="62.5"
       x="85.500015"
       y="-186"
       rx="10"
       ry="10" />
    <rect
       ry="10"
       rx="10"
       y="-186"
       x="183.69997"
       height="62.5"
       width="83.199997"
       id="rect169"
       style="opacity:1;fill:#ffffff;fill-opacity:1;fill-rule:nonzero;stroke:none;stroke-width:2.02449703;stroke-linecap:square;stroke-linejoin:round;stroke-miterlimit:4;stroke-dasharray:none;stroke-dashoffset:0;stroke-opacity:1" />
    <rect
       style="opacity:1;fill:#ffffff;fill-opacity:1;fill-rule:nonzero;stroke:none;stroke-width:2.02449703;stroke-linecap:square;stroke-linejoin:round;stroke-miterlimit:4;stroke-dasharray:none;stroke-dashoffset:0;stroke-opacity:1"
       id="rect173"
       width="83.199997"
       height="62.5"
       x="281.90005"
       y="-186"
       rx="10"
       ry="10" />
    <rect
       ry="10"
       rx="10"
       y="-186"
       x="380.10001"
       height="62.5"
       width="83.199997"
       id="rect186"
       style="opacity:1;fill:#ffffff;fill-opacity:1;fill-rule:nonzero;stroke:none;stroke-width:2.02449703;stroke-linecap:square;stroke-linejoin:round;stroke-miterlimit:4;stroke-dasharray:none;stroke-dashoffset:0;stroke-opacity:1" />
    <circle
       style="opacity:1;fill:#ffffff;fill-opacity:1;fill-rule:nonzero;stroke:none;stroke-width:2.05049872;stroke-linecap:square;stroke-linejoin:round;stroke-miterlimit:4;stroke-dasharray:none;stroke-dashoffset:0;stroke-opacity:1"
       id="path209"
       cx="175.50002"
       cy="-58.499989"
       r="35" />
    <circle
       r="20"
       cy="-60.999989"
       cx="175.50002"
       id="circle211"
       style="opacity:1;fill:#000000;fill-opacity:1;fill-rule:nonzero;stroke:none;stroke-width:1.17171359;stroke-linecap:square;stroke-linejoin:round;stroke-miterlimit:4;stroke-dasharray:none;stroke-dashoffset:0;stroke-opacity:1" />
    <circle
       r="35"
       cy="-58.499989"
       cx="425.50003"
       id="circle250"
       style="opacity:1;fill:#ffffff;fill-opacity:1;fill-rule:nonzero;stroke:none;stroke-width:2.05049872;stroke-linecap:square;stroke-linejoin:round;stroke-miterlimit:4;stroke-dasharray:none;stroke-dashoffset:0;stroke-opacity:1" />
    <circle
       style="opacity:1;fill:#000000;fill-opacity:1;fill-rule:nonzero;stroke:none;stroke-width:1.17171359;stroke-linecap:square;stroke-linejoin:round;stroke-miterlimit:4;stroke-dasharray:none;stroke-dashoffset:0;stroke-opacity:1"
       id="circle252"
       cx="425.50003"
       cy="-60.999989"
       r="20" />
    <path
       inkscape:connector-curvature="0"
       id="path34-8"
       style="fill:#000000;fill-opacity:1;fill-rule:nonzero;stroke:none;stroke-width:0.35278156"
       d="m 144.23835,172.32211 c -15.6794,0 -23.51914,-14.47793 -23.51914,-43.43788 0,-15.12413 1.99951,-26.1239 6.00003,-33.00321 3.75923,-6.5582 9.60096,-9.83916 17.51911,-9.83916 14.88159,0 22.32172,14.28073 22.32172,42.84237 0,15.19724 -1.8397,26.32081 -5.52063,33.35882 -3.60082,6.72051 -9.19835,10.07906 -16.80109,10.07906 z m 0,18.95789 c 15.43968,0 26.64185,-6.638 33.60079,-19.91431 C 183.27828,160.96283 186,146.80601 186,128.88423 186,110.72265 182.43937,95.96252 175.31893,84.60294 167.80008,72.60155 157.43862,66.6 144.23835,66.6 116.08078,66.6 102,87.36198 102,128.88423 c 0,21.19874 3.91903,37.11948 11.75887,47.75945 7.20024,9.75805 17.362,14.63632 30.47948,14.63632 v 0" />
    <path
       inkscape:connector-curvature="0"
       id="path36-7"
       style="fill:#000000;fill-opacity:1;fill-rule:nonzero;stroke:none;stroke-width:0.35277927"
       d="m 213.72,69 v 120 h 18.6009 V 111.48045 L 277.92091,189 h 16.07924 V 69 h -18.95929 v 78.1217 L 229.44075,69 H 213.72 v 0" />
    <path
       inkscape:connector-curvature="0"
       id="path38-6"
       style="fill:#000000;fill-opacity:1;fill-rule:nonzero;stroke:none;stroke-width:0.35277748"
       d="m 321.72,69 v 120 h 73.2 V 171.36402 H 340.0825 V 69 H 321.72 v 0" />
    <path
       inkscape:connector-curvature="0"
       id="path40-7"
       style="fill:#000000;fill-opacity:1;fill-rule:nonzero;stroke:none;stroke-width:0.35277927"
       d="m 402.00001,69 42.11871,68.40237 V 189 h 18.6023 V 137.40237 L 504.00022,69 h -22.0808 L 452.99832,115.55923 424.44046,69 h -22.44045 v 0" />
  </g>
</svg>
